# xmcd
#
# Track frame offsets:
#	182
#	19460
#	35795
#	53282
#	69832
#	84280
#	99410
#	113822
#	129150
#	141487
#	158652
#	174922
#	190625
#	206350
#	221475
#	241037
#	257862
#	270805
#
# Disc length: 3827 seconds
#
# Revision: 1
# Processed by: cddbd v1.5.1PL2 Copyright (c) Steve Scherf et al.
# Submitted via: audiograbber 1.83.01
#
DISCID=e20ef112
DTITLE=Various Artist -  Arista Nashville The Fifth Anniversary Collection Dis
DTITLE=c 4
DYEAR=1995
DGENRE=Country
TTITLE0=Lee Roy Parnell - I'm Holding My Own
TTITLE1=Brooks and Dunn - That Ain't No Way To Go
TTITLE2=Pam Tillis - Spilled Perfume
TTITLE3=BlackHawk - Every Once In A While
TTITLE4=Alan Jackson - Summertime Blues
TTITLE5=Lee Roy Parnell - Take These Chains
TTITLE6=Diamond Rio - Love A Little Stronger
TTITLE7=Brooks and Dunn - She's Not THe Cheatin' Kind
TTITLE8=Pam Tillis - When You Walk In The Room
TTITLE9=Alan Jackson - Livin' On Love
TTITLE10=BlackHawk - I Sure Can Smell The Rain
TTITLE11=The Tractors - Baby Likes To Rock It
TTITLE12=Diamond Rio - Night Is Fallin' In My Heart
TTITLE13=Brooks and Dunn - I'll Never Forgive My Heart
TTITLE14=Alan Jackson - Gone Country
TTITLE15=Brooks and Dunn - Down In Flames
TTITLE16=Pam Tillis - Mi Vida Lova (My Crazy Life)
TTITLE17=Jed Zeppelin - Workin' Man Blues
EXTD=
EXTT0=
EXTT1=
EXTT2=
EXTT3=
EXTT4=
EXTT5=
EXTT6=
EXTT7=
EXTT8=
EXTT9=
EXTT10=
EXTT11=
EXTT12=
EXTT13=
EXTT14=
EXTT15=
EXTT16=
EXTT17=
PLAYORDER=
